<svg width="234" height="105" viewBox="0 0 234 105" fill="none" xmlns="http://www.w3.org/2000/svg">
<path d="M73.5409 91.1C73.2876 91.1 73.0743 91.0133 72.9009 90.84C72.7276 90.6667 72.6409 90.4533 72.6409 90.2V78.74H68.5609C68.3209 78.74 68.1209 78.66 67.9609 78.5C67.8009 78.34 67.7209 78.14 67.7209 77.9C67.7209 77.66 67.8009 77.46 67.9609 77.3C68.1209 77.1267 68.3209 77.04 68.5609 77.04H78.5209C78.7609 77.04 78.9609 77.1267 79.1209 77.3C79.2943 77.46 79.3809 77.66 79.3809 77.9C79.3809 78.14 79.2943 78.34 79.1209 78.5C78.9609 78.66 78.7609 78.74 78.5209 78.74H74.4609V90.2C74.4609 90.4533 74.3676 90.6667 74.1809 90.84C74.0076 91.0133 73.7943 91.1 73.5409 91.1ZM82.937 91.1C82.6837 91.1 82.4704 91.0133 82.297 90.84C82.1237 90.6667 82.037 90.4533 82.037 90.2V81.62C82.037 81.3667 82.1237 81.1533 82.297 80.98C82.4704 80.7933 82.6837 80.7 82.937 80.7C83.1904 80.7 83.4037 80.7933 83.577 80.98C83.7637 81.1533 83.857 81.3667 83.857 81.62V82.48C84.7904 81.2267 85.837 80.6 86.997 80.6H87.097C87.3504 80.6 87.557 80.6867 87.717 80.86C87.8904 81.0333 87.977 81.2467 87.977 81.5C87.977 81.7533 87.8904 81.96 87.717 82.12C87.5437 82.28 87.3237 82.36 87.057 82.36H86.957C86.317 82.36 85.7304 82.52 85.197 82.84C84.6637 83.1467 84.217 83.5733 83.857 84.12V90.2C83.857 90.4533 83.7637 90.6667 83.577 90.84C83.4037 91.0133 83.1904 91.1 82.937 91.1ZM92.5533 78.72C92.2733 78.72 92.0333 78.62 91.8333 78.42C91.6333 78.22 91.5333 77.98 91.5333 77.7V77.62C91.5333 77.34 91.6333 77.1 91.8333 76.9C92.0333 76.7 92.2733 76.6 92.5533 76.6H92.6733C92.9533 76.6 93.1933 76.7 93.3933 76.9C93.5933 77.1 93.6933 77.34 93.6933 77.62V77.7C93.6933 77.98 93.5933 78.22 93.3933 78.42C93.1933 78.62 92.9533 78.72 92.6733 78.72H92.5533ZM92.5933 91.1C92.3399 91.1 92.1266 91.0133 91.9533 90.84C91.7799 90.6667 91.6933 90.4533 91.6933 90.2V81.62C91.6933 81.3667 91.7799 81.1533 91.9533 80.98C92.1266 80.7933 92.3399 80.7 92.5933 80.7C92.8599 80.7 93.0799 80.7867 93.2533 80.96C93.4266 81.1333 93.5133 81.3533 93.5133 81.62V90.2C93.5133 90.4533 93.4199 90.6667 93.2333 90.84C93.0599 91.0133 92.8466 91.1 92.5933 91.1ZM99.5738 95.7C99.3204 95.7 99.1071 95.6067 98.9338 95.42C98.7604 95.2467 98.6738 95.0333 98.6738 94.78V81.6C98.6738 81.3467 98.7604 81.1333 98.9338 80.96C99.1071 80.7867 99.3204 80.7 99.5738 80.7C99.8271 80.7 100.04 80.7867 100.214 80.96C100.4 81.1333 100.494 81.3467 100.494 81.6V82.12C101.467 81.1067 102.607 80.6 103.914 80.6C104.74 80.6 105.52 80.8133 106.254 81.24C107 81.6533 107.6 82.2667 108.054 83.08C108.52 83.88 108.754 84.82 108.754 85.9C108.754 86.98 108.52 87.9267 108.054 88.74C107.6 89.54 107 90.1533 106.254 90.58C105.52 90.9933 104.74 91.2 103.914 91.2C102.607 91.2 101.467 90.6933 100.494 89.68V94.78C100.494 95.0467 100.407 95.2667 100.234 95.44C100.06 95.6133 99.8404 95.7 99.5738 95.7ZM103.654 89.5C104.64 89.5 105.434 89.1867 106.034 88.56C106.634 87.9333 106.934 87.0467 106.934 85.9C106.934 84.7533 106.634 83.8667 106.034 83.24C105.434 82.6133 104.64 82.3 103.654 82.3C103.04 82.3 102.46 82.44 101.914 82.72C101.38 82.9867 100.907 83.3467 100.494 83.8V88C100.907 88.4533 101.38 88.82 101.914 89.1C102.46 89.3667 103.04 89.5 103.654 89.5ZM114.191 91.1C113.938 91.1 113.724 91.0133 113.551 90.84C113.378 90.6667 113.291 90.4533 113.291 90.2V77.22C113.291 76.9667 113.378 76.7533 113.551 76.58C113.724 76.3933 113.938 76.3 114.191 76.3C114.458 76.3 114.678 76.3867 114.851 76.56C115.024 76.7333 115.111 76.9533 115.111 77.22V90.2C115.111 90.4533 115.018 90.6667 114.831 90.84C114.658 91.0133 114.444 91.1 114.191 91.1ZM124.831 91.2C123.205 91.2 121.931 90.74 121.011 89.82C120.105 88.8867 119.651 87.58 119.651 85.9C119.651 84.9533 119.825 84.08 120.171 83.28C120.518 82.48 121.051 81.8333 121.771 81.34C122.491 80.8467 123.378 80.6 124.431 80.6C125.418 80.6 126.271 80.8333 126.991 81.3C127.711 81.7533 128.258 82.3667 128.631 83.14C129.005 83.9 129.191 84.7333 129.191 85.64C129.191 85.8933 129.105 86.1067 128.931 86.28C128.771 86.4533 128.551 86.54 128.271 86.54H121.491C121.598 87.4733 121.945 88.2 122.531 88.72C123.118 89.24 123.938 89.5 124.991 89.5C125.551 89.5 126.038 89.4467 126.451 89.34C126.878 89.2333 127.291 89.08 127.691 88.88C127.798 88.8267 127.918 88.8 128.051 88.8C128.265 88.8 128.451 88.8733 128.611 89.02C128.771 89.1667 128.851 89.3533 128.851 89.58C128.851 89.8733 128.678 90.12 128.331 90.32C127.811 90.6133 127.298 90.8333 126.791 90.98C126.285 91.1267 125.631 91.2 124.831 91.2ZM127.391 85.06C127.351 84.4067 127.178 83.86 126.871 83.42C126.578 82.98 126.211 82.66 125.771 82.46C125.331 82.2467 124.885 82.14 124.431 82.14C123.978 82.14 123.531 82.2467 123.091 82.46C122.651 82.66 122.285 82.98 121.991 83.42C121.698 83.86 121.531 84.4067 121.491 85.06H127.391ZM147.315 91.2C145.982 91.2 144.782 90.9133 143.715 90.34C142.662 89.7533 141.828 88.92 141.215 87.84C140.615 86.7467 140.315 85.4733 140.315 84.02C140.315 82.5667 140.615 81.3 141.215 80.22C141.828 79.1267 142.662 78.2933 143.715 77.72C144.782 77.1333 145.982 76.84 147.315 76.84C148.222 76.84 149.028 76.9467 149.735 77.16C150.455 77.3733 151.168 77.68 151.875 78.08C152.168 78.24 152.315 78.4933 152.315 78.84C152.315 79.04 152.242 79.22 152.095 79.38C151.948 79.5267 151.755 79.6 151.515 79.6C151.382 79.6 151.262 79.5733 151.155 79.52C150.568 79.2133 149.995 78.98 149.435 78.82C148.875 78.66 148.228 78.58 147.495 78.58C146.348 78.58 145.368 78.82 144.555 79.3C143.755 79.7667 143.148 80.4133 142.735 81.24C142.335 82.0533 142.135 82.98 142.135 84.02C142.135 85.06 142.335 85.9933 142.735 86.82C143.148 87.6333 143.755 88.28 144.555 88.76C145.368 89.2267 146.348 89.46 147.495 89.46C148.228 89.46 148.875 89.38 149.435 89.22C149.995 89.06 150.568 88.8267 151.155 88.52C151.262 88.4667 151.382 88.44 151.515 88.44C151.755 88.44 151.948 88.5133 152.095 88.66C152.242 88.8067 152.315 88.9867 152.315 89.2C152.315 89.5467 152.168 89.8 151.875 89.96C151.168 90.36 150.455 90.6667 149.735 90.88C149.028 91.0933 148.222 91.2 147.315 91.2ZM170.416 91.2C169.083 91.2 167.883 90.9133 166.816 90.34C165.763 89.7533 164.93 88.92 164.316 87.84C163.716 86.7467 163.416 85.4733 163.416 84.02C163.416 82.5667 163.716 81.3 164.316 80.22C164.93 79.1267 165.763 78.2933 166.816 77.72C167.883 77.1333 169.083 76.84 170.416 76.84C171.323 76.84 172.13 76.9467 172.836 77.16C173.556 77.3733 174.27 77.68 174.976 78.08C175.27 78.24 175.416 78.4933 175.416 78.84C175.416 79.04 175.343 79.22 175.196 79.38C175.05 79.5267 174.856 79.6 174.616 79.6C174.483 79.6 174.363 79.5733 174.256 79.52C173.67 79.2133 173.096 78.98 172.536 78.82C171.976 78.66 171.33 78.58 170.596 78.58C169.45 78.58 168.47 78.82 167.656 79.3C166.856 79.7667 166.25 80.4133 165.836 81.24C165.436 82.0533 165.236 82.98 165.236 84.02C165.236 85.06 165.436 85.9933 165.836 86.82C166.25 87.6333 166.856 88.28 167.656 88.76C168.47 89.2267 169.45 89.46 170.596 89.46C171.33 89.46 171.976 89.38 172.536 89.22C173.096 89.06 173.67 88.8267 174.256 88.52C174.363 88.4667 174.483 88.44 174.616 88.44C174.856 88.44 175.05 88.5133 175.196 88.66C175.343 88.8067 175.416 88.9867 175.416 89.2C175.416 89.5467 175.27 89.8 174.976 89.96C174.27 90.36 173.556 90.6667 172.836 90.88C172.13 91.0933 171.323 91.2 170.416 91.2ZM183.99 91.2C182.963 91.2 182.063 90.98 181.29 90.54C180.517 90.1 179.917 89.48 179.49 88.68C179.077 87.8667 178.87 86.94 178.87 85.9C178.87 84.86 179.077 83.94 179.49 83.14C179.917 82.3267 180.517 81.7 181.29 81.26C182.063 80.82 182.963 80.6 183.99 80.6C185.003 80.6 185.897 80.82 186.67 81.26C187.443 81.7 188.043 82.3267 188.47 83.14C188.897 83.94 189.11 84.86 189.11 85.9C189.11 86.94 188.897 87.8667 188.47 88.68C188.043 89.48 187.443 90.1 186.67 90.54C185.897 90.98 185.003 91.2 183.99 91.2ZM183.99 89.54C184.537 89.54 185.057 89.4133 185.55 89.16C186.057 88.9067 186.47 88.5067 186.79 87.96C187.123 87.4133 187.29 86.72 187.29 85.88C187.29 85.0533 187.123 84.3667 186.79 83.82C186.47 83.2733 186.057 82.88 185.55 82.64C185.057 82.3867 184.537 82.26 183.99 82.26C183.43 82.26 182.897 82.3867 182.39 82.64C181.897 82.88 181.49 83.2733 181.17 83.82C180.85 84.3667 180.69 85.0533 180.69 85.88C180.69 86.72 180.85 87.4133 181.17 87.96C181.49 88.5067 181.897 88.9067 182.39 89.16C182.897 89.4133 183.43 89.54 183.99 89.54ZM195.22 91.1C194.967 91.1 194.754 91.0133 194.58 90.84C194.407 90.6667 194.32 90.4533 194.32 90.2V82.36H193.14C192.927 82.36 192.74 82.2867 192.58 82.14C192.434 81.98 192.36 81.7933 192.36 81.58C192.36 81.3533 192.434 81.1667 192.58 81.02C192.74 80.8733 192.927 80.8 193.14 80.8H194.32V79.64C194.32 78.84 194.46 78.1867 194.74 77.68C195.034 77.16 195.407 76.7867 195.86 76.56C196.327 76.32 196.814 76.2 197.32 76.2C197.947 76.2 198.527 76.3333 199.06 76.6C199.194 76.6667 199.3 76.7667 199.38 76.9C199.474 77.02 199.52 77.1533 199.52 77.3C199.52 77.5 199.447 77.68 199.3 77.84C199.154 77.9867 198.98 78.06 198.78 78.06C198.634 78.06 198.48 78.04 198.32 78C198 77.96 197.82 77.94 197.78 77.94C197.234 77.94 196.82 78.0667 196.54 78.32C196.274 78.5733 196.14 79.0333 196.14 79.7V80.8H202.2V79.64C202.2 78.84 202.34 78.1867 202.62 77.68C202.914 77.16 203.287 76.7867 203.74 76.56C204.207 76.32 204.694 76.2 205.2 76.2C205.827 76.2 206.407 76.3333 206.94 76.6C207.074 76.6667 207.18 76.7667 207.26 76.9C207.354 77.02 207.4 77.1533 207.4 77.3C207.4 77.5 207.327 77.68 207.18 77.84C207.034 77.9867 206.86 78.06 206.66 78.06C206.514 78.06 206.36 78.04 206.2 78C205.88 77.96 205.7 77.94 205.66 77.94C205.114 77.94 204.7 78.0667 204.42 78.32C204.154 78.5733 204.02 79.0333 204.02 79.7V80.8H206.52C206.747 80.8 206.934 80.8733 207.08 81.02C207.227 81.1667 207.3 81.3533 207.3 81.58C207.3 81.7933 207.227 81.98 207.08 82.14C206.934 82.2867 206.747 82.36 206.52 82.36H204.02V90.2C204.02 90.4533 203.927 90.6667 203.74 90.84C203.567 91.0133 203.354 91.1 203.1 91.1C202.847 91.1 202.634 91.0133 202.46 90.84C202.287 90.6667 202.2 90.4533 202.2 90.2V82.36H196.14V90.2C196.14 90.4533 196.047 90.6667 195.86 90.84C195.687 91.0133 195.474 91.1 195.22 91.1ZM215.023 91.2C213.396 91.2 212.123 90.74 211.203 89.82C210.296 88.8867 209.843 87.58 209.843 85.9C209.843 84.9533 210.016 84.08 210.363 83.28C210.709 82.48 211.243 81.8333 211.963 81.34C212.683 80.8467 213.569 80.6 214.623 80.6C215.609 80.6 216.463 80.8333 217.183 81.3C217.903 81.7533 218.449 82.3667 218.823 83.14C219.196 83.9 219.383 84.7333 219.383 85.64C219.383 85.8933 219.296 86.1067 219.123 86.28C218.963 86.4533 218.743 86.54 218.463 86.54H211.683C211.789 87.4733 212.136 88.2 212.723 88.72C213.309 89.24 214.129 89.5 215.183 89.5C215.743 89.5 216.229 89.4467 216.643 89.34C217.069 89.2333 217.483 89.08 217.883 88.88C217.989 88.8267 218.109 88.8 218.243 88.8C218.456 88.8 218.643 88.8733 218.803 89.02C218.963 89.1667 219.043 89.3533 219.043 89.58C219.043 89.8733 218.869 90.12 218.523 90.32C218.003 90.6133 217.489 90.8333 216.983 90.98C216.476 91.1267 215.823 91.2 215.023 91.2ZM217.583 85.06C217.543 84.4067 217.369 83.86 217.063 83.42C216.769 82.98 216.403 82.66 215.963 82.46C215.523 82.2467 215.076 82.14 214.623 82.14C214.169 82.14 213.723 82.2467 213.283 82.46C212.843 82.66 212.476 82.98 212.183 83.42C211.889 83.86 211.723 84.4067 211.683 85.06H217.583ZM228.351 91.2C226.724 91.2 225.451 90.74 224.531 89.82C223.624 88.8867 223.171 87.58 223.171 85.9C223.171 84.9533 223.344 84.08 223.691 83.28C224.038 82.48 224.571 81.8333 225.291 81.34C226.011 80.8467 226.898 80.6 227.951 80.6C228.938 80.6 229.791 80.8333 230.511 81.3C231.231 81.7533 231.778 82.3667 232.151 83.14C232.524 83.9 232.711 84.7333 232.711 85.64C232.711 85.8933 232.624 86.1067 232.451 86.28C232.291 86.4533 232.071 86.54 231.791 86.54H225.011C225.118 87.4733 225.464 88.2 226.051 88.72C226.638 89.24 227.458 89.5 228.511 89.5C229.071 89.5 229.558 89.4467 229.971 89.34C230.398 89.2333 230.811 89.08 231.211 88.88C231.318 88.8267 231.438 88.8 231.571 88.8C231.784 88.8 231.971 88.8733 232.131 89.02C232.291 89.1667 232.371 89.3533 232.371 89.58C232.371 89.8733 232.198 90.12 231.851 90.32C231.331 90.6133 230.818 90.8333 230.311 90.98C229.804 91.1267 229.151 91.2 228.351 91.2ZM230.911 85.06C230.871 84.4067 230.698 83.86 230.391 83.42C230.098 82.98 229.731 82.66 229.291 82.46C228.851 82.2467 228.404 82.14 227.951 82.14C227.498 82.14 227.051 82.2467 226.611 82.46C226.171 82.66 225.804 82.98 225.511 83.42C225.218 83.86 225.051 84.4067 225.011 85.06H230.911Z" fill="black"/>
<path d="M110.111 37.5C110.111 37.5 70.1111 2.00007 63.6111 2C57.1111 1.99993 5.61115 46 3.11112 51.5C0.611095 57 3.11112 96.5 3.11112 96.5" stroke="#006980" stroke-width="3"/>
<path d="M129.111 41.5C129.111 41.5 89.1111 6.00007 82.6111 6C76.1111 5.99993 24.6112 50 22.1111 55.5C19.6111 61 22.1111 100.5 22.1111 100.5" stroke="#874800" stroke-width="3"/>
<path d="M149.5 45.5C149.5 45.5 109.5 10.0001 103 10C96.5 9.99993 45.0001 54 42.5 59.5C40 65 42.5 104.5 42.5 104.5" stroke="#F3D1AA" stroke-width="3"/>
</svg>
