<svg width="285" height="123" viewBox="0 0 285 123" fill="none" xmlns="http://www.w3.org/2000/svg">
<path d="M89.1512 97.1C88.8978 97.1 88.6845 97.0133 88.5112 96.84C88.3378 96.6667 88.2512 96.4533 88.2512 96.2V84.74H84.1712C83.9312 84.74 83.7312 84.66 83.5712 84.5C83.4112 84.34 83.3312 84.14 83.3312 83.9C83.3312 83.66 83.4112 83.46 83.5712 83.3C83.7312 83.1267 83.9312 83.04 84.1712 83.04H94.1312C94.3712 83.04 94.5712 83.1267 94.7312 83.3C94.9045 83.46 94.9912 83.66 94.9912 83.9C94.9912 84.14 94.9045 84.34 94.7312 84.5C94.5712 84.66 94.3712 84.74 94.1312 84.74H90.0712V96.2C90.0712 96.4533 89.9778 96.6667 89.7912 96.84C89.6178 97.0133 89.4045 97.1 89.1512 97.1ZM98.5473 97.1C98.2939 97.1 98.0806 97.0133 97.9073 96.84C97.7339 96.6667 97.6473 96.4533 97.6473 96.2V87.62C97.6473 87.3667 97.7339 87.1533 97.9073 86.98C98.0806 86.7933 98.2939 86.7 98.5473 86.7C98.8006 86.7 99.0139 86.7933 99.1873 86.98C99.3739 87.1533 99.4673 87.3667 99.4673 87.62V88.48C100.401 87.2267 101.447 86.6 102.607 86.6H102.707C102.961 86.6 103.167 86.6867 103.327 86.86C103.501 87.0333 103.587 87.2467 103.587 87.5C103.587 87.7533 103.501 87.96 103.327 88.12C103.154 88.28 102.934 88.36 102.667 88.36H102.567C101.927 88.36 101.341 88.52 100.807 88.84C100.274 89.1467 99.8273 89.5733 99.4673 90.12V96.2C99.4673 96.4533 99.3739 96.6667 99.1873 96.84C99.0139 97.0133 98.8006 97.1 98.5473 97.1ZM108.164 84.72C107.884 84.72 107.644 84.62 107.444 84.42C107.244 84.22 107.144 83.98 107.144 83.7V83.62C107.144 83.34 107.244 83.1 107.444 82.9C107.644 82.7 107.884 82.6 108.164 82.6H108.284C108.564 82.6 108.804 82.7 109.004 82.9C109.204 83.1 109.304 83.34 109.304 83.62V83.7C109.304 83.98 109.204 84.22 109.004 84.42C108.804 84.62 108.564 84.72 108.284 84.72H108.164ZM108.204 97.1C107.95 97.1 107.737 97.0133 107.564 96.84C107.39 96.6667 107.304 96.4533 107.304 96.2V87.62C107.304 87.3667 107.39 87.1533 107.564 86.98C107.737 86.7933 107.95 86.7 108.204 86.7C108.47 86.7 108.69 86.7867 108.864 86.96C109.037 87.1333 109.124 87.3533 109.124 87.62V96.2C109.124 96.4533 109.03 96.6667 108.844 96.84C108.67 97.0133 108.457 97.1 108.204 97.1ZM115.184 101.7C114.931 101.7 114.717 101.607 114.544 101.42C114.371 101.247 114.284 101.033 114.284 100.78V87.6C114.284 87.3467 114.371 87.1333 114.544 86.96C114.717 86.7867 114.931 86.7 115.184 86.7C115.437 86.7 115.651 86.7867 115.824 86.96C116.011 87.1333 116.104 87.3467 116.104 87.6V88.12C117.077 87.1067 118.217 86.6 119.524 86.6C120.351 86.6 121.131 86.8133 121.864 87.24C122.611 87.6533 123.211 88.2667 123.664 89.08C124.131 89.88 124.364 90.82 124.364 91.9C124.364 92.98 124.131 93.9267 123.664 94.74C123.211 95.54 122.611 96.1533 121.864 96.58C121.131 96.9933 120.351 97.2 119.524 97.2C118.217 97.2 117.077 96.6933 116.104 95.68V100.78C116.104 101.047 116.017 101.267 115.844 101.44C115.671 101.613 115.451 101.7 115.184 101.7ZM119.264 95.5C120.251 95.5 121.044 95.1867 121.644 94.56C122.244 93.9333 122.544 93.0467 122.544 91.9C122.544 90.7533 122.244 89.8667 121.644 89.24C121.044 88.6133 120.251 88.3 119.264 88.3C118.651 88.3 118.071 88.44 117.524 88.72C116.991 88.9867 116.517 89.3467 116.104 89.8V94C116.517 94.4533 116.991 94.82 117.524 95.1C118.071 95.3667 118.651 95.5 119.264 95.5ZM129.801 97.1C129.548 97.1 129.335 97.0133 129.161 96.84C128.988 96.6667 128.901 96.4533 128.901 96.2V83.22C128.901 82.9667 128.988 82.7533 129.161 82.58C129.335 82.3933 129.548 82.3 129.801 82.3C130.068 82.3 130.288 82.3867 130.461 82.56C130.635 82.7333 130.721 82.9533 130.721 83.22V96.2C130.721 96.4533 130.628 96.6667 130.441 96.84C130.268 97.0133 130.055 97.1 129.801 97.1ZM140.442 97.2C138.815 97.2 137.542 96.74 136.622 95.82C135.715 94.8867 135.262 93.58 135.262 91.9C135.262 90.9533 135.435 90.08 135.782 89.28C136.128 88.48 136.662 87.8333 137.382 87.34C138.102 86.8467 138.988 86.6 140.042 86.6C141.028 86.6 141.882 86.8333 142.602 87.3C143.322 87.7533 143.868 88.3667 144.242 89.14C144.615 89.9 144.802 90.7333 144.802 91.64C144.802 91.8933 144.715 92.1067 144.542 92.28C144.382 92.4533 144.162 92.54 143.882 92.54H137.102C137.208 93.4733 137.555 94.2 138.142 94.72C138.728 95.24 139.548 95.5 140.602 95.5C141.162 95.5 141.648 95.4467 142.062 95.34C142.488 95.2333 142.902 95.08 143.302 94.88C143.408 94.8267 143.528 94.8 143.662 94.8C143.875 94.8 144.062 94.8733 144.222 95.02C144.382 95.1667 144.462 95.3533 144.462 95.58C144.462 95.8733 144.288 96.12 143.942 96.32C143.422 96.6133 142.908 96.8333 142.402 96.98C141.895 97.1267 141.242 97.2 140.442 97.2ZM143.002 91.06C142.962 90.4067 142.788 89.86 142.482 89.42C142.188 88.98 141.822 88.66 141.382 88.46C140.942 88.2467 140.495 88.14 140.042 88.14C139.588 88.14 139.142 88.2467 138.702 88.46C138.262 88.66 137.895 88.98 137.602 89.42C137.308 89.86 137.142 90.4067 137.102 91.06H143.002ZM162.925 97.2C161.592 97.2 160.392 96.9133 159.325 96.34C158.272 95.7533 157.438 94.92 156.825 93.84C156.225 92.7467 155.925 91.4733 155.925 90.02C155.925 88.5667 156.225 87.3 156.825 86.22C157.438 85.1267 158.272 84.2933 159.325 83.72C160.392 83.1333 161.592 82.84 162.925 82.84C163.832 82.84 164.638 82.9467 165.345 83.16C166.065 83.3733 166.778 83.68 167.485 84.08C167.778 84.24 167.925 84.4933 167.925 84.84C167.925 85.04 167.852 85.22 167.705 85.38C167.558 85.5267 167.365 85.6 167.125 85.6C166.992 85.6 166.872 85.5733 166.765 85.52C166.178 85.2133 165.605 84.98 165.045 84.82C164.485 84.66 163.838 84.58 163.105 84.58C161.958 84.58 160.978 84.82 160.165 85.3C159.365 85.7667 158.758 86.4133 158.345 87.24C157.945 88.0533 157.745 88.98 157.745 90.02C157.745 91.06 157.945 91.9933 158.345 92.82C158.758 93.6333 159.365 94.28 160.165 94.76C160.978 95.2267 161.958 95.46 163.105 95.46C163.838 95.46 164.485 95.38 165.045 95.22C165.605 95.06 166.178 94.8267 166.765 94.52C166.872 94.4667 166.992 94.44 167.125 94.44C167.365 94.44 167.558 94.5133 167.705 94.66C167.852 94.8067 167.925 94.9867 167.925 95.2C167.925 95.5467 167.778 95.8 167.485 95.96C166.778 96.36 166.065 96.6667 165.345 96.88C164.638 97.0933 163.832 97.2 162.925 97.2ZM186.027 97.2C184.693 97.2 183.493 96.9133 182.427 96.34C181.373 95.7533 180.54 94.92 179.927 93.84C179.327 92.7467 179.027 91.4733 179.027 90.02C179.027 88.5667 179.327 87.3 179.927 86.22C180.54 85.1267 181.373 84.2933 182.427 83.72C183.493 83.1333 184.693 82.84 186.027 82.84C186.933 82.84 187.74 82.9467 188.447 83.16C189.167 83.3733 189.88 83.68 190.587 84.08C190.88 84.24 191.027 84.4933 191.027 84.84C191.027 85.04 190.953 85.22 190.807 85.38C190.66 85.5267 190.467 85.6 190.227 85.6C190.093 85.6 189.973 85.5733 189.867 85.52C189.28 85.2133 188.707 84.98 188.147 84.82C187.587 84.66 186.94 84.58 186.207 84.58C185.06 84.58 184.08 84.82 183.267 85.3C182.467 85.7667 181.86 86.4133 181.447 87.24C181.047 88.0533 180.847 88.98 180.847 90.02C180.847 91.06 181.047 91.9933 181.447 92.82C181.86 93.6333 182.467 94.28 183.267 94.76C184.08 95.2267 185.06 95.46 186.207 95.46C186.94 95.46 187.587 95.38 188.147 95.22C188.707 95.06 189.28 94.8267 189.867 94.52C189.973 94.4667 190.093 94.44 190.227 94.44C190.467 94.44 190.66 94.5133 190.807 94.66C190.953 94.8067 191.027 94.9867 191.027 95.2C191.027 95.5467 190.88 95.8 190.587 95.96C189.88 96.36 189.167 96.6667 188.447 96.88C187.74 97.0933 186.933 97.2 186.027 97.2ZM199.6 97.2C198.574 97.2 197.674 96.98 196.9 96.54C196.127 96.1 195.527 95.48 195.1 94.68C194.687 93.8667 194.48 92.94 194.48 91.9C194.48 90.86 194.687 89.94 195.1 89.14C195.527 88.3267 196.127 87.7 196.9 87.26C197.674 86.82 198.574 86.6 199.6 86.6C200.614 86.6 201.507 86.82 202.28 87.26C203.054 87.7 203.654 88.3267 204.08 89.14C204.507 89.94 204.72 90.86 204.72 91.9C204.72 92.94 204.507 93.8667 204.08 94.68C203.654 95.48 203.054 96.1 202.28 96.54C201.507 96.98 200.614 97.2 199.6 97.2ZM199.6 95.54C200.147 95.54 200.667 95.4133 201.16 95.16C201.667 94.9067 202.08 94.5067 202.4 93.96C202.734 93.4133 202.9 92.72 202.9 91.88C202.9 91.0533 202.734 90.3667 202.4 89.82C202.08 89.2733 201.667 88.88 201.16 88.64C200.667 88.3867 200.147 88.26 199.6 88.26C199.04 88.26 198.507 88.3867 198 88.64C197.507 88.88 197.1 89.2733 196.78 89.82C196.46 90.3667 196.3 91.0533 196.3 91.88C196.3 92.72 196.46 93.4133 196.78 93.96C197.1 94.5067 197.507 94.9067 198 95.16C198.507 95.4133 199.04 95.54 199.6 95.54ZM210.831 97.1C210.577 97.1 210.364 97.0133 210.191 96.84C210.017 96.6667 209.931 96.4533 209.931 96.2V88.36H208.751C208.537 88.36 208.351 88.2867 208.191 88.14C208.044 87.98 207.971 87.7933 207.971 87.58C207.971 87.3533 208.044 87.1667 208.191 87.02C208.351 86.8733 208.537 86.8 208.751 86.8H209.931V85.64C209.931 84.84 210.071 84.1867 210.351 83.68C210.644 83.16 211.017 82.7867 211.471 82.56C211.937 82.32 212.424 82.2 212.931 82.2C213.557 82.2 214.137 82.3333 214.671 82.6C214.804 82.6667 214.911 82.7667 214.991 82.9C215.084 83.02 215.131 83.1533 215.131 83.3C215.131 83.5 215.057 83.68 214.911 83.84C214.764 83.9867 214.591 84.06 214.391 84.06C214.244 84.06 214.091 84.04 213.931 84C213.611 83.96 213.431 83.94 213.391 83.94C212.844 83.94 212.431 84.0667 212.151 84.32C211.884 84.5733 211.751 85.0333 211.751 85.7V86.8H217.811V85.64C217.811 84.84 217.951 84.1867 218.231 83.68C218.524 83.16 218.897 82.7867 219.351 82.56C219.817 82.32 220.304 82.2 220.811 82.2C221.437 82.2 222.017 82.3333 222.551 82.6C222.684 82.6667 222.791 82.7667 222.871 82.9C222.964 83.02 223.011 83.1533 223.011 83.3C223.011 83.5 222.937 83.68 222.791 83.84C222.644 83.9867 222.471 84.06 222.271 84.06C222.124 84.06 221.971 84.04 221.811 84C221.491 83.96 221.311 83.94 221.271 83.94C220.724 83.94 220.311 84.0667 220.031 84.32C219.764 84.5733 219.631 85.0333 219.631 85.7V86.8H222.131C222.357 86.8 222.544 86.8733 222.691 87.02C222.837 87.1667 222.911 87.3533 222.911 87.58C222.911 87.7933 222.837 87.98 222.691 88.14C222.544 88.2867 222.357 88.36 222.131 88.36H219.631V96.2C219.631 96.4533 219.537 96.6667 219.351 96.84C219.177 97.0133 218.964 97.1 218.711 97.1C218.457 97.1 218.244 97.0133 218.071 96.84C217.897 96.6667 217.811 96.4533 217.811 96.2V88.36H211.751V96.2C211.751 96.4533 211.657 96.6667 211.471 96.84C211.297 97.0133 211.084 97.1 210.831 97.1ZM230.633 97.2C229.006 97.2 227.733 96.74 226.813 95.82C225.906 94.8867 225.453 93.58 225.453 91.9C225.453 90.9533 225.626 90.08 225.973 89.28C226.32 88.48 226.853 87.8333 227.573 87.34C228.293 86.8467 229.18 86.6 230.233 86.6C231.22 86.6 232.073 86.8333 232.793 87.3C233.513 87.7533 234.06 88.3667 234.433 89.14C234.806 89.9 234.993 90.7333 234.993 91.64C234.993 91.8933 234.906 92.1067 234.733 92.28C234.573 92.4533 234.353 92.54 234.073 92.54H227.293C227.4 93.4733 227.746 94.2 228.333 94.72C228.92 95.24 229.74 95.5 230.793 95.5C231.353 95.5 231.84 95.4467 232.253 95.34C232.68 95.2333 233.093 95.08 233.493 94.88C233.6 94.8267 233.72 94.8 233.853 94.8C234.066 94.8 234.253 94.8733 234.413 95.02C234.573 95.1667 234.653 95.3533 234.653 95.58C234.653 95.8733 234.48 96.12 234.133 96.32C233.613 96.6133 233.1 96.8333 232.593 96.98C232.086 97.1267 231.433 97.2 230.633 97.2ZM233.193 91.06C233.153 90.4067 232.98 89.86 232.673 89.42C232.38 88.98 232.013 88.66 231.573 88.46C231.133 88.2467 230.686 88.14 230.233 88.14C229.78 88.14 229.333 88.2467 228.893 88.46C228.453 88.66 228.086 88.98 227.793 89.42C227.5 89.86 227.333 90.4067 227.293 91.06H233.193ZM243.961 97.2C242.335 97.2 241.061 96.74 240.141 95.82C239.235 94.8867 238.781 93.58 238.781 91.9C238.781 90.9533 238.955 90.08 239.301 89.28C239.648 88.48 240.181 87.8333 240.901 87.34C241.621 86.8467 242.508 86.6 243.561 86.6C244.548 86.6 245.401 86.8333 246.121 87.3C246.841 87.7533 247.388 88.3667 247.761 89.14C248.135 89.9 248.321 90.7333 248.321 91.64C248.321 91.8933 248.235 92.1067 248.061 92.28C247.901 92.4533 247.681 92.54 247.401 92.54H240.621C240.728 93.4733 241.075 94.2 241.661 94.72C242.248 95.24 243.068 95.5 244.121 95.5C244.681 95.5 245.168 95.4467 245.581 95.34C246.008 95.2333 246.421 95.08 246.821 94.88C246.928 94.8267 247.048 94.8 247.181 94.8C247.395 94.8 247.581 94.8733 247.741 95.02C247.901 95.1667 247.981 95.3533 247.981 95.58C247.981 95.8733 247.808 96.12 247.461 96.32C246.941 96.6133 246.428 96.8333 245.921 96.98C245.415 97.1267 244.761 97.2 243.961 97.2ZM246.521 91.06C246.481 90.4067 246.308 89.86 246.001 89.42C245.708 88.98 245.341 88.66 244.901 88.46C244.461 88.2467 244.015 88.14 243.561 88.14C243.108 88.14 242.661 88.2467 242.221 88.46C241.781 88.66 241.415 88.98 241.121 89.42C240.828 89.86 240.661 90.4067 240.621 91.06H246.521Z" fill="white"/>
<path d="M129.69 43.561C129.69 43.561 82.4462 2.00008 74.769 2C67.0919 1.99992 6.26514 53.5122 3.31235 59.9512C0.359561 66.3902 3.31235 112.634 3.31235 112.634" stroke="#006980" stroke-width="3"/>
<path d="M152.132 48.2441C152.132 48.2441 104.888 6.68319 97.2105 6.68311C89.5333 6.68302 28.7065 58.1953 25.7538 64.6343C22.801 71.0733 25.7538 117.317 25.7538 117.317" stroke="#874800" stroke-width="3"/>
<path d="M176.213 52.9267C176.213 52.9267 128.969 11.3658 121.292 11.3657C113.614 11.3656 52.7876 62.8779 49.8348 69.3169C46.882 75.756 49.8348 122 49.8348 122" stroke="#F3D1AA" stroke-width="3"/>
</svg>
